   <svg width="790" height="145" viewBox="0 0 790 145" fill="none" xmlns="http://www.w3.org/2000/svg">
<path d="M10.8 56.96C9.62666 56.96 8.71999 56.6667 8.07999 56.08C7.49332 55.44 7.19999 54.5333 7.19999 53.36V4.15999C7.19999 2.98666 7.49332 2.10666 8.07999 1.51999C8.71999 0.879989 9.62666 0.559988 10.8 0.559988H40.56C41.4667 0.559988 42.16 0.799988 42.64 1.27999C43.12 1.75999 43.36 2.42666 43.36 3.27999C43.36 4.18666 43.12 4.87999 42.64 5.35999C42.16 5.83999 41.4667 6.07999 40.56 6.07999H13.6V25.6H38.88C39.7867 25.6 40.48 25.84 40.96 26.32C41.44 26.7467 41.68 27.4133 41.68 28.32C41.68 29.2267 41.44 29.92 40.96 30.4C40.48 30.88 39.7867 31.12 38.88 31.12H13.6V51.44H40.56C41.4667 51.44 42.16 51.68 42.64 52.16C43.12 52.64 43.36 53.3067 43.36 54.16C43.36 55.0667 43.12 55.76 42.64 56.24C42.16 56.72 41.4667 56.96 40.56 56.96H10.8ZM64.8006 57.68C60.9606 57.68 58.0273 56.5067 56.0006 54.16C53.9739 51.8133 52.9606 48.4533 52.9606 44.08V3.27999C52.9606 2.21332 53.2273 1.41332 53.7606 0.879989C54.2939 0.293323 55.0939 -9.53674e-06 56.1606 -9.53674e-06C57.1739 -9.53674e-06 57.9739 0.293323 58.5606 0.879989C59.1473 1.41332 59.4406 2.21332 59.4406 3.27999V43.6C59.4406 46.48 60.0006 48.64 61.1206 50.08C62.2939 51.4667 64.0006 52.16 66.2406 52.16C66.7206 52.16 67.1473 52.1333 67.5206 52.08C67.8939 52.0267 68.2673 52 68.6406 52C69.2273 51.9467 69.6273 52.08 69.8406 52.4C70.1073 52.72 70.2406 53.36 70.2406 54.32C70.2406 55.28 70.0273 56 69.6006 56.48C69.174 56.96 68.4806 57.28 67.5206 57.44C67.0939 57.4933 66.6406 57.5467 66.1606 57.6C65.6806 57.6533 65.2273 57.68 64.8006 57.68ZM100.617 57.52C99.5508 57.52 98.7508 57.2267 98.2175 56.64C97.6842 56.0533 97.4175 55.2267 97.4175 54.16V20.8C97.4175 19.7333 97.6842 18.9333 98.2175 18.4C98.7508 17.8133 99.5242 17.52 100.537 17.52C101.551 17.52 102.324 17.8133 102.857 18.4C103.444 18.9333 103.737 19.7333 103.737 20.8V27.84L102.857 26.72C103.871 23.7333 105.497 21.44 107.737 19.84C110.031 18.1867 112.751 17.36 115.897 17.36C119.204 17.36 121.871 18.16 123.897 19.76C125.977 21.3067 127.364 23.7333 128.057 27.04H126.857C127.817 24.0533 129.524 21.7067 131.977 20C134.484 18.24 137.391 17.36 140.697 17.36C143.631 17.36 146.031 17.92 147.897 19.04C149.817 20.16 151.257 21.8667 152.217 24.16C153.177 26.4 153.657 29.2533 153.657 32.72V54.16C153.657 55.2267 153.364 56.0533 152.777 56.64C152.244 57.2267 151.444 57.52 150.377 57.52C149.364 57.52 148.564 57.2267 147.977 56.64C147.444 56.0533 147.177 55.2267 147.177 54.16V33.04C147.177 29.4667 146.564 26.8533 145.337 25.2C144.111 23.4933 142.031 22.64 139.097 22.64C135.897 22.64 133.364 23.76 131.497 26C129.684 28.1867 128.777 31.1733 128.777 34.96V54.16C128.777 55.2267 128.484 56.0533 127.897 56.64C127.364 57.2267 126.564 57.52 125.497 57.52C124.484 57.52 123.684 57.2267 123.097 56.64C122.564 56.0533 122.297 55.2267 122.297 54.16V33.04C122.297 29.4667 121.657 26.8533 120.377 25.2C119.151 23.4933 117.097 22.64 114.217 22.64C111.017 22.64 108.484 23.76 106.617 26C104.804 28.1867 103.897 31.1733 103.897 34.96V54.16C103.897 56.4 102.804 57.52 100.617 57.52ZM183.293 57.68C179.186 57.68 175.64 56.88 172.653 55.28C169.72 53.6267 167.426 51.3067 165.773 48.32C164.173 45.3333 163.373 41.76 163.373 37.6C163.373 33.5467 164.173 30.0267 165.773 27.04C167.373 24 169.56 21.6267 172.333 19.92C175.16 18.2133 178.413 17.36 182.093 17.36C184.706 17.36 187.053 17.8133 189.133 18.72C191.213 19.5733 192.973 20.8267 194.413 22.48C195.906 24.1333 197.026 26.1333 197.773 28.48C198.573 30.8267 198.973 33.4667 198.973 36.4C198.973 37.2533 198.733 37.8933 198.253 38.32C197.773 38.6933 197.08 38.88 196.173 38.88H168.333V34.64H194.653L193.373 35.68C193.373 32.8 192.946 30.3733 192.093 28.4C191.24 26.3733 189.986 24.8267 188.333 23.76C186.733 22.6933 184.706 22.16 182.253 22.16C179.533 22.16 177.213 22.8 175.293 24.08C173.426 25.3067 172.013 27.04 171.053 29.28C170.093 31.4667 169.613 34.0267 169.613 36.96V37.44C169.613 42.3467 170.786 46.08 173.133 48.64C175.533 51.2 178.92 52.48 183.293 52.48C185.106 52.48 186.893 52.24 188.653 51.76C190.466 51.28 192.226 50.48 193.933 49.36C194.68 48.88 195.346 48.6667 195.933 48.72C196.573 48.72 197.08 48.9067 197.453 49.28C197.826 49.6 198.066 50.0267 198.173 50.56C198.333 51.04 198.28 51.5733 198.013 52.16C197.8 52.7467 197.346 53.2533 196.653 53.68C194.893 54.96 192.813 55.9467 190.413 56.64C188.013 57.3333 185.64 57.68 183.293 57.68ZM200.911 72.24C200.111 72.2933 199.471 72.16 198.991 71.84C198.458 71.52 198.111 71.0933 197.951 70.56C197.738 70.08 197.685 69.5733 197.791 69.04C197.845 68.56 198.058 68.1333 198.431 67.76C198.805 67.3867 199.311 67.2 199.951 67.2C202.885 67.04 205.045 66.24 206.431 64.8C207.871 63.4133 208.591 61.2 208.591 58.16V20.8C208.591 19.7333 208.858 18.9333 209.391 18.4C209.978 17.8133 210.805 17.52 211.871 17.52C212.885 17.52 213.658 17.8133 214.191 18.4C214.778 18.9333 215.071 19.7333 215.071 20.8V57.68C215.071 60.9333 214.511 63.6 213.391 65.68C212.325 67.8133 210.751 69.3867 208.671 70.4C206.591 71.4667 204.005 72.08 200.911 72.24ZM211.791 8.71999C210.458 8.71999 209.418 8.37332 208.671 7.67999C207.925 6.93332 207.551 5.94665 207.551 4.71999C207.551 3.43999 207.925 2.47999 208.671 1.83999C209.418 1.14666 210.458 0.79999 211.791 0.79999C213.178 0.79999 214.245 1.14666 214.991 1.83999C215.738 2.47999 216.111 3.43999 216.111 4.71999C216.111 5.94665 215.738 6.93332 214.991 7.67999C214.245 8.37332 213.178 8.71999 211.791 8.71999ZM243.417 57.68C239.631 57.68 236.351 56.8533 233.577 55.2C230.804 53.5467 228.644 51.2267 227.097 48.24C225.604 45.2 224.857 41.6267 224.857 37.52C224.857 34.4267 225.284 31.6533 226.137 29.2C226.991 26.6933 228.244 24.56 229.897 22.8C231.551 21.04 233.497 19.7067 235.737 18.8C238.031 17.84 240.591 17.36 243.417 17.36C247.204 17.36 250.484 18.1867 253.257 19.84C256.031 21.4933 258.164 23.84 259.657 26.88C261.204 29.8667 261.977 33.4133 261.977 37.52C261.977 40.6133 261.551 43.3867 260.697 45.84C259.844 48.2933 258.591 50.4267 256.937 52.24C255.284 54 253.311 55.36 251.017 56.32C248.777 57.2267 246.244 57.68 243.417 57.68ZM243.417 52.48C245.817 52.48 247.924 51.8933 249.737 50.72C251.551 49.5467 252.937 47.84 253.897 45.6C254.911 43.36 255.417 40.6667 255.417 37.52C255.417 32.6667 254.324 28.96 252.137 26.4C250.004 23.84 247.097 22.56 243.417 22.56C240.964 22.56 238.831 23.1467 237.017 24.32C235.257 25.44 233.871 27.12 232.857 29.36C231.897 31.5467 231.417 34.2667 231.417 37.52C231.417 42.32 232.511 46.0267 234.697 48.64C236.884 51.2 239.791 52.48 243.417 52.48ZM274.991 57.52C273.924 57.52 273.097 57.2267 272.511 56.64C271.977 56.0533 271.711 55.2267 271.711 54.16V20.8C271.711 19.7333 271.977 18.9333 272.511 18.4C273.044 17.8133 273.817 17.52 274.831 17.52C275.844 17.52 276.617 17.8133 277.151 18.4C277.737 18.9333 278.031 19.7333 278.031 20.8V27.28H277.231C278.084 24.1333 279.711 21.7067 282.111 20C284.511 18.2933 287.471 17.3867 290.991 17.28C291.791 17.2267 292.431 17.4133 292.911 17.84C293.391 18.2133 293.657 18.88 293.711 19.84C293.764 20.7467 293.551 21.4667 293.071 22C292.591 22.5333 291.844 22.8533 290.831 22.96L289.551 23.12C285.924 23.44 283.124 24.6133 281.151 26.64C279.231 28.6133 278.271 31.3333 278.271 34.8V54.16C278.271 55.2267 277.977 56.0533 277.391 56.64C276.857 57.2267 276.057 57.52 274.991 57.52ZM334.127 57.68C331.727 57.68 329.301 57.3867 326.847 56.8C324.447 56.2133 322.207 55.2 320.127 53.76C319.594 53.3867 319.221 52.96 319.007 52.48C318.794 51.9467 318.714 51.44 318.767 50.96C318.874 50.4267 319.087 49.9733 319.407 49.6C319.781 49.2267 320.207 49.0133 320.687 48.96C321.221 48.8533 321.807 48.96 322.447 49.28C324.527 50.56 326.527 51.4667 328.447 52C330.421 52.48 332.367 52.72 334.287 52.72C337.327 52.72 339.621 52.16 341.167 51.04C342.714 49.92 343.487 48.4 343.487 46.48C343.487 44.9867 342.981 43.8133 341.967 42.96C340.954 42.0533 339.354 41.36 337.167 40.88L329.887 39.28C326.527 38.5867 324.021 37.3867 322.367 35.68C320.767 33.9733 319.967 31.76 319.967 29.04C319.967 26.64 320.581 24.5867 321.807 22.88C323.087 21.12 324.874 19.76 327.167 18.8C329.461 17.84 332.127 17.36 335.167 17.36C337.514 17.36 339.727 17.68 341.807 18.32C343.941 18.9067 345.861 19.8667 347.567 21.2C348.101 21.5733 348.447 22.0267 348.607 22.56C348.821 23.04 348.847 23.5467 348.687 24.08C348.581 24.56 348.341 24.9867 347.967 25.36C347.594 25.68 347.141 25.8667 346.607 25.92C346.074 25.9733 345.514 25.8133 344.927 25.44C343.327 24.3733 341.701 23.6 340.047 23.12C338.394 22.5867 336.767 22.32 335.167 22.32C332.181 22.32 329.914 22.9067 328.367 24.08C326.821 25.2533 326.047 26.8 326.047 28.72C326.047 30.2133 326.527 31.44 327.487 32.4C328.447 33.36 329.941 34.0533 331.967 34.48L339.247 36C342.714 36.7467 345.301 37.9467 347.007 39.6C348.767 41.2 349.647 43.3867 349.647 46.16C349.647 49.68 348.234 52.48 345.407 54.56C342.581 56.64 338.821 57.68 334.127 57.68ZM377.043 57.68C372.936 57.68 369.39 56.88 366.403 55.28C363.47 53.6267 361.176 51.3067 359.523 48.32C357.923 45.3333 357.123 41.76 357.123 37.6C357.123 33.5467 357.923 30.0267 359.523 27.04C361.123 24 363.31 21.6267 366.083 19.92C368.91 18.2133 372.163 17.36 375.843 17.36C378.456 17.36 380.803 17.8133 382.883 18.72C384.963 19.5733 386.723 20.8267 388.163 22.48C389.656 24.1333 390.776 26.1333 391.523 28.48C392.323 30.8267 392.723 33.4667 392.723 36.4C392.723 37.2533 392.483 37.8933 392.003 38.32C391.523 38.6933 390.83 38.88 389.923 38.88H362.083V34.64H388.403L387.123 35.68C387.123 32.8 386.696 30.3733 385.843 28.4C384.99 26.3733 383.736 24.8267 382.083 23.76C380.483 22.6933 378.456 22.16 376.003 22.16C373.283 22.16 370.963 22.8 369.043 24.08C367.176 25.3067 365.763 27.04 364.803 29.28C363.843 31.4667 363.363 34.0267 363.363 36.96V37.44C363.363 42.3467 364.536 46.08 366.883 48.64C369.283 51.2 372.67 52.48 377.043 52.48C378.856 52.48 380.643 52.24 382.403 51.76C384.216 51.28 385.976 50.48 387.683 49.36C388.43 48.88 389.096 48.6667 389.683 48.72C390.323 48.72 390.83 48.9067 391.203 49.28C391.576 49.6 391.816 50.0267 391.923 50.56C392.083 51.04 392.03 51.5733 391.763 52.16C391.55 52.7467 391.096 53.2533 390.403 53.68C388.643 54.96 386.563 55.9467 384.163 56.64C381.763 57.3333 379.39 57.68 377.043 57.68ZM419.301 72.08C416.475 72.08 413.701 71.7333 410.981 71.04C408.315 70.4 405.888 69.36 403.701 67.92C403.061 67.5467 402.635 67.0933 402.421 66.56C402.261 66.0267 402.235 65.4933 402.341 64.96C402.448 64.48 402.688 64.0267 403.061 63.6C403.435 63.2267 403.861 62.9867 404.341 62.88C404.875 62.7733 405.408 62.8533 405.941 63.12C408.288 64.56 410.528 65.5467 412.661 66.08C414.795 66.6133 416.901 66.88 418.981 66.88C422.768 66.88 425.621 65.8667 427.541 63.84C429.515 61.8133 430.501 58.88 430.501 55.04V46H431.301C430.501 49.0933 428.795 51.5467 426.181 53.36C423.621 55.1733 420.608 56.08 417.141 56.08C413.568 56.08 410.475 55.28 407.861 53.68C405.248 52.0267 403.221 49.7333 401.781 46.8C400.395 43.8667 399.701 40.48 399.701 36.64C399.701 33.76 400.101 31.1467 400.901 28.8C401.701 26.4 402.848 24.3733 404.341 22.72C405.888 21.0133 407.728 19.7067 409.861 18.8C412.048 17.84 414.475 17.36 417.141 17.36C420.661 17.36 423.701 18.2667 426.261 20.08C428.821 21.84 430.475 24.24 431.221 27.28L430.421 28.24V20.8C430.421 19.7333 430.688 18.9333 431.221 18.4C431.808 17.8133 432.608 17.52 433.621 17.52C434.688 17.52 435.488 17.8133 436.021 18.4C436.555 18.9333 436.821 19.7333 436.821 20.8V54.16C436.821 60.08 435.328 64.5333 432.341 67.52C429.408 70.56 425.061 72.08 419.301 72.08ZM418.341 50.8C420.848 50.8 423.008 50.24 424.821 49.12C426.635 47.9467 428.021 46.2933 428.981 44.16C429.995 42.0267 430.501 39.52 430.501 36.64C430.501 32.32 429.408 28.9067 427.221 26.4C425.035 23.84 422.075 22.56 418.341 22.56C415.888 22.56 413.755 23.1467 411.941 24.32C410.128 25.44 408.715 27.0667 407.701 29.2C406.741 31.28 406.261 33.76 406.261 36.64C406.261 40.96 407.355 44.4 409.541 46.96C411.728 49.52 414.661 50.8 418.341 50.8ZM462.736 57.68C459.59 57.68 456.976 57.12 454.896 56C452.87 54.8267 451.323 53.0933 450.256 50.8C449.243 48.5067 448.736 45.6533 448.736 42.24V20.8C448.736 19.68 449.003 18.8533 449.536 18.32C450.123 17.7867 450.923 17.52 451.936 17.52C453.003 17.52 453.803 17.7867 454.336 18.32C454.923 18.8533 455.216 19.68 455.216 20.8V42.16C455.216 45.5733 455.91 48.1333 457.296 49.84C458.736 51.4933 460.976 52.32 464.016 52.32C467.323 52.32 470.016 51.2 472.096 48.96C474.176 46.72 475.216 43.7867 475.216 40.16V20.8C475.216 19.68 475.483 18.8533 476.016 18.32C476.603 17.7867 477.43 17.52 478.496 17.52C479.51 17.52 480.283 17.7867 480.816 18.32C481.403 18.8533 481.696 19.68 481.696 20.8V54.16C481.696 56.4 480.656 57.52 478.576 57.52C477.563 57.52 476.763 57.2267 476.176 56.64C475.643 56.0533 475.376 55.2267 475.376 54.16V46.88L476.416 48C475.35 51.1467 473.59 53.5467 471.136 55.2C468.736 56.8533 465.936 57.68 462.736 57.68ZM497.1 57.52C496.033 57.52 495.207 57.2267 494.62 56.64C494.087 56.0533 493.82 55.2267 493.82 54.16V20.8C493.82 19.7333 494.087 18.9333 494.62 18.4C495.153 17.8133 495.927 17.52 496.94 17.52C497.953 17.52 498.727 17.8133 499.26 18.4C499.847 18.9333 500.14 19.7333 500.14 20.8V27.28H499.34C500.193 24.1333 501.82 21.7067 504.22 20C506.62 18.2933 509.58 17.3867 513.1 17.28C513.9 17.2267 514.54 17.4133 515.02 17.84C515.5 18.2133 515.767 18.88 515.82 19.84C515.873 20.7467 515.66 21.4667 515.18 22C514.7 22.5333 513.953 22.8533 512.94 22.96L511.66 23.12C508.033 23.44 505.233 24.6133 503.26 26.64C501.34 28.6133 500.38 31.3333 500.38 34.8V54.16C500.38 55.2267 500.087 56.0533 499.5 56.64C498.967 57.2267 498.167 57.52 497.1 57.52ZM538.183 57.68C534.396 57.68 531.116 56.8533 528.343 55.2C525.57 53.5467 523.41 51.2267 521.863 48.24C520.37 45.2 519.623 41.6267 519.623 37.52C519.623 34.4267 520.05 31.6533 520.903 29.2C521.756 26.6933 523.01 24.56 524.663 22.8C526.316 21.04 528.263 19.7067 530.503 18.8C532.796 17.84 535.356 17.36 538.183 17.36C541.97 17.36 545.25 18.1867 548.023 19.84C550.796 21.4933 552.93 23.84 554.423 26.88C555.97 29.8667 556.743 33.4133 556.743 37.52C556.743 40.6133 556.316 43.3867 555.463 45.84C554.61 48.2933 553.356 50.4267 551.703 52.24C550.05 54 548.076 55.36 545.783 56.32C543.543 57.2267 541.01 57.68 538.183 57.68ZM538.183 52.48C540.583 52.48 542.69 51.8933 544.503 50.72C546.316 49.5467 547.703 47.84 548.663 45.6C549.676 43.36 550.183 40.6667 550.183 37.52C550.183 32.6667 549.09 28.96 546.903 26.4C544.77 23.84 541.863 22.56 538.183 22.56C535.73 22.56 533.596 23.1467 531.783 24.32C530.023 25.44 528.636 27.12 527.623 29.36C526.663 31.5467 526.183 34.2667 526.183 37.52C526.183 42.32 527.276 46.0267 529.463 48.64C531.65 51.2 534.556 52.48 538.183 52.48ZM604.621 57.68C600.515 57.68 596.968 56.88 593.981 55.28C591.048 53.6267 588.755 51.3067 587.101 48.32C585.501 45.3333 584.701 41.76 584.701 37.6C584.701 33.5467 585.501 30.0267 587.101 27.04C588.701 24 590.888 21.6267 593.661 19.92C596.488 18.2133 599.741 17.36 603.421 17.36C606.035 17.36 608.381 17.8133 610.461 18.72C612.541 19.5733 614.301 20.8267 615.741 22.48C617.235 24.1333 618.355 26.1333 619.101 28.48C619.901 30.8267 620.301 33.4667 620.301 36.4C620.301 37.2533 620.061 37.8933 619.581 38.32C619.101 38.6933 618.408 38.88 617.501 38.88H589.661V34.64H615.981L614.701 35.68C614.701 32.8 614.275 30.3733 613.421 28.4C612.568 26.3733 611.315 24.8267 609.661 23.76C608.061 22.6933 606.035 22.16 603.581 22.16C600.861 22.16 598.541 22.8 596.621 24.08C594.755 25.3067 593.341 27.04 592.381 29.28C591.421 31.4667 590.941 34.0267 590.941 36.96V37.44C590.941 42.3467 592.115 46.08 594.461 48.64C596.861 51.2 600.248 52.48 604.621 52.48C606.435 52.48 608.221 52.24 609.981 51.76C611.795 51.28 613.555 50.48 615.261 49.36C616.008 48.88 616.675 48.6667 617.261 48.72C617.901 48.72 618.408 48.9067 618.781 49.28C619.155 49.6 619.395 50.0267 619.501 50.56C619.661 51.04 619.608 51.5733 619.341 52.16C619.128 52.7467 618.675 53.2533 617.981 53.68C616.221 54.96 614.141 55.9467 611.741 56.64C609.341 57.3333 606.968 57.68 604.621 57.68ZM642.799 57.68C640.399 57.68 637.973 57.3867 635.519 56.8C633.119 56.2133 630.879 55.2 628.799 53.76C628.266 53.3867 627.893 52.96 627.679 52.48C627.466 51.9467 627.386 51.44 627.439 50.96C627.546 50.4267 627.759 49.9733 628.079 49.6C628.453 49.2267 628.879 49.0133 629.359 48.96C629.893 48.8533 630.479 48.96 631.119 49.28C633.199 50.56 635.199 51.4667 637.119 52C639.093 52.48 641.039 52.72 642.959 52.72C645.999 52.72 648.293 52.16 649.839 51.04C651.386 49.92 652.159 48.4 652.159 46.48C652.159 44.9867 651.653 43.8133 650.639 42.96C649.626 42.0533 648.026 41.36 645.839 40.88L638.559 39.28C635.199 38.5867 632.693 37.3867 631.039 35.68C629.439 33.9733 628.639 31.76 628.639 29.04C628.639 26.64 629.253 24.5867 630.479 22.88C631.759 21.12 633.546 19.76 635.839 18.8C638.133 17.84 640.799 17.36 643.839 17.36C646.186 17.36 648.399 17.68 650.479 18.32C652.613 18.9067 654.533 19.8667 656.239 21.2C656.773 21.5733 657.119 22.0267 657.279 22.56C657.493 23.04 657.519 23.5467 657.359 24.08C657.253 24.56 657.013 24.9867 656.639 25.36C656.266 25.68 655.813 25.8667 655.279 25.92C654.746 25.9733 654.186 25.8133 653.599 25.44C651.999 24.3733 650.373 23.6 648.719 23.12C647.066 22.5867 645.439 22.32 643.839 22.32C640.853 22.32 638.586 22.9067 637.039 24.08C635.493 25.2533 634.719 26.8 634.719 28.72C634.719 30.2133 635.199 31.44 636.159 32.4C637.119 33.36 638.613 34.0533 640.639 34.48L647.919 36C651.386 36.7467 653.973 37.9467 655.679 39.6C657.439 41.2 658.319 43.3867 658.319 46.16C658.319 49.68 656.906 52.48 654.079 54.56C651.253 56.64 647.493 57.68 642.799 57.68ZM5.51999 144.08C3.65332 144.08 2.26666 143.44 1.35999 142.16C0.453324 140.933 0.186657 139.227 0.55999 137.04L7.19999 95.12C7.46666 93.0933 8.18666 91.5733 9.35999 90.56C10.5333 89.5467 12.1067 89.04 14.08 89.04C15.9467 89.04 17.28 89.6533 18.08 90.88C18.9333 92.1067 19.2 93.84 18.88 96.08L18.24 99.6V96.48C19.7333 94.0267 21.6533 92.16 24 90.88C26.3467 89.5467 28.96 88.88 31.84 88.88C34.7733 88.88 37.3333 89.5733 39.52 90.96C41.76 92.2933 43.4667 94.24 44.64 96.8C45.8667 99.36 46.48 102.373 46.48 105.84C46.48 110.373 45.68 114.453 44.08 118.08C42.48 121.707 40.1867 124.587 37.2 126.72C34.2667 128.8 30.7733 129.84 26.72 129.84C23.7867 129.84 21.2 129.173 18.96 127.84C16.7733 126.453 15.2267 124.453 14.32 121.84H15.04L12.4 138.24C12.08 140.213 11.36 141.68 10.24 142.64C9.11999 143.6 7.54666 144.08 5.51999 144.08ZM24.24 120.8C26.3733 120.8 28.1867 120.187 29.68 118.96C31.1733 117.68 32.32 115.973 33.12 113.84C33.92 111.653 34.32 109.2 34.32 106.48C34.32 103.707 33.6533 101.6 32.32 100.16C31.04 98.6667 29.2533 97.92 26.96 97.92C24.8267 97.92 23.0133 98.5333 21.52 99.76C20.0267 100.987 18.88 102.693 18.08 104.88C17.28 107.013 16.88 109.44 16.88 112.16C16.88 114.933 17.52 117.067 18.8 118.56C20.1333 120.053 21.9467 120.8 24.24 120.8ZM70.9881 129.84C66.9348 129.84 63.4681 129.093 60.5881 127.6C57.7081 126.107 55.4948 124 53.9481 121.28C52.4548 118.56 51.7081 115.387 51.7081 111.76C51.7081 108.133 52.2948 104.907 53.4681 102.08C54.6948 99.2 56.3481 96.8 58.4281 94.88C60.5614 92.9067 62.9614 91.4133 65.6281 90.4C68.3481 89.3867 71.2014 88.88 74.1881 88.88C78.2414 88.88 81.7081 89.6267 84.5881 91.12C87.4681 92.56 89.6815 94.64 91.2281 97.36C92.7748 100.08 93.5481 103.253 93.5481 106.88C93.5481 110.56 92.9348 113.813 91.7081 116.64C90.4815 119.467 88.8015 121.867 86.6681 123.84C84.5881 125.813 82.1881 127.307 79.4681 128.32C76.8014 129.333 73.9748 129.84 70.9881 129.84ZM71.3081 120.8C73.4415 120.8 75.2281 120.187 76.6681 118.96C78.1615 117.68 79.3081 115.973 80.1081 113.84C80.9614 111.653 81.3881 109.2 81.3881 106.48C81.3881 103.707 80.7214 101.6 79.3881 100.16C78.0548 98.6667 76.2414 97.92 73.9481 97.92C71.8681 97.92 70.0548 98.5333 68.5081 99.76C67.0148 100.987 65.8681 102.693 65.0681 104.88C64.2681 107.013 63.8681 109.44 63.8681 112.16C63.8681 114.933 64.5081 117.067 65.7881 118.56C67.1214 120.053 68.9614 120.8 71.3081 120.8ZM113.377 129.84C110.444 129.84 107.857 129.147 105.617 127.76C103.431 126.32 101.724 124.347 100.497 121.84C99.3242 119.28 98.7375 116.267 98.7375 112.8C98.7375 108.213 99.5375 104.133 101.137 100.56C102.737 96.9333 105.031 94.08 108.017 92C111.004 89.92 114.497 88.88 118.497 88.88C121.431 88.88 123.991 89.5733 126.177 90.96C128.417 92.2933 129.991 94.2667 130.897 96.88L130.257 96.8L133.217 77.68C133.537 75.7067 134.284 74.24 135.457 73.28C136.631 72.32 138.204 71.84 140.177 71.84C142.097 71.84 143.484 72.4533 144.337 73.68C145.191 74.8533 145.457 76.56 145.137 78.8L138.017 123.52C137.751 125.547 137.031 127.093 135.857 128.16C134.684 129.173 133.111 129.68 131.137 129.68C129.271 129.68 127.911 129.04 127.057 127.76C126.257 126.427 126.044 124.667 126.417 122.48L126.977 118.96V122.16C125.484 124.507 123.564 126.373 121.217 127.76C118.871 129.147 116.257 129.84 113.377 129.84ZM118.257 120.8C120.391 120.8 122.204 120.16 123.697 118.88C125.191 117.6 126.337 115.893 127.137 113.76C127.937 111.627 128.337 109.2 128.337 106.48C128.337 103.707 127.671 101.6 126.337 100.16C125.057 98.6667 123.271 97.92 120.977 97.92C118.844 97.92 117.031 98.5333 115.537 99.76C114.044 100.987 112.897 102.693 112.097 104.88C111.297 107.013 110.897 109.44 110.897 112.16C110.897 114.933 111.537 117.067 112.817 118.56C114.151 120.053 115.964 120.8 118.257 120.8ZM167.886 129.84C163.779 129.84 160.206 129.093 157.166 127.6C154.126 126.053 151.779 123.92 150.126 121.2C148.472 118.48 147.646 115.333 147.646 111.76C147.646 107.28 148.606 103.333 150.526 99.92C152.446 96.5067 155.059 93.8133 158.366 91.84C161.726 89.8667 165.512 88.88 169.726 88.88C173.032 88.88 175.832 89.44 178.126 90.56C180.419 91.68 182.232 93.2 183.566 95.12C184.899 96.9867 185.779 99.1467 186.206 101.6C186.686 104 186.792 106.48 186.526 109.04C186.366 110.267 186.019 111.067 185.486 111.44C184.952 111.76 184.232 111.92 183.326 111.92H157.406L158.286 105.68H178.366L177.086 106.8C177.352 104.88 177.272 103.2 176.846 101.76C176.419 100.267 175.619 99.0933 174.446 98.24C173.272 97.3333 171.672 96.88 169.646 96.88C167.619 96.88 165.886 97.36 164.446 98.32C163.059 99.2267 161.966 100.427 161.166 101.92C160.366 103.36 159.806 104.96 159.486 106.72L159.086 109.52C158.499 113.04 159.086 115.813 160.846 117.84C162.659 119.813 165.406 120.8 169.086 120.8C170.472 120.8 171.966 120.64 173.566 120.32C175.219 120 176.686 119.52 177.966 118.88C179.139 118.293 180.152 118.107 181.006 118.32C181.912 118.48 182.606 118.907 183.086 119.6C183.566 120.293 183.806 121.093 183.806 122C183.859 122.853 183.619 123.733 183.086 124.64C182.606 125.493 181.832 126.213 180.766 126.8C178.899 127.813 176.792 128.56 174.446 129.04C172.099 129.573 169.912 129.84 167.886 129.84ZM196.512 129.68C194.539 129.68 193.099 129.093 192.192 127.92C191.339 126.693 191.099 125.013 191.472 122.88L195.872 94.8C196.192 92.88 196.912 91.44 198.032 90.48C199.205 89.52 200.725 89.04 202.592 89.04C204.512 89.04 205.899 89.6267 206.752 90.8C207.605 91.92 207.872 93.5733 207.552 95.76L206.912 99.28H206.192C207.205 96.1333 208.912 93.6533 211.312 91.84C213.765 90.0267 216.592 89.04 219.792 88.88C221.392 88.8267 222.512 89.12 223.152 89.76C223.792 90.3467 224.112 91.36 224.112 92.8C224.112 94.9333 223.605 96.5067 222.592 97.52C221.632 98.5333 220.139 99.1467 218.112 99.36L215.472 99.6C212.325 99.92 210.059 100.88 208.672 102.48C207.285 104.027 206.352 106.293 205.872 109.28L203.552 123.84C203.285 125.813 202.539 127.28 201.312 128.24C200.139 129.2 198.539 129.68 196.512 129.68ZM262.944 129.68C261.024 129.68 259.504 129.227 258.384 128.32C257.264 127.36 256.464 125.973 255.984 124.16L248.544 97.2C248.064 95.6 247.984 94.1867 248.304 92.96C248.624 91.7333 249.264 90.7733 250.224 90.08C251.184 89.3867 252.411 89.04 253.904 89.04C255.558 89.04 256.838 89.44 257.744 90.24C258.651 91.04 259.318 92.4533 259.744 94.48L265.184 117.84H262.704L276.624 93.2C277.478 91.6533 278.384 90.5867 279.344 90C280.358 89.36 281.638 89.04 283.184 89.04C284.678 89.04 285.851 89.3867 286.704 90.08C287.558 90.72 288.011 91.6 288.064 92.72C288.171 93.7867 287.851 94.96 287.104 96.24L269.744 125.28C268.784 126.827 267.744 127.947 266.624 128.64C265.558 129.333 264.331 129.68 262.944 129.68ZM294.399 129.68C292.532 129.68 291.145 129.067 290.239 127.84C289.385 126.56 289.145 124.827 289.519 122.64L293.919 95.04C294.185 93.0133 294.905 91.52 296.079 90.56C297.252 89.5467 298.852 89.04 300.879 89.04C302.745 89.04 304.105 89.6533 304.959 90.88C305.812 92.1067 306.079 93.84 305.759 96.08L301.359 123.68C301.039 125.653 300.319 127.147 299.199 128.16C298.079 129.173 296.479 129.68 294.399 129.68ZM301.999 82.48C299.865 82.48 298.265 81.9733 297.199 80.96C296.185 79.9467 295.785 78.5067 295.999 76.64C296.319 74.56 297.145 73.0133 298.479 72C299.812 70.9333 301.625 70.4 303.919 70.4C306.052 70.4 307.652 70.9067 308.719 71.92C309.785 72.9333 310.159 74.4 309.839 76.32C309.572 78.3467 308.772 79.8933 307.439 80.96C306.105 81.9733 304.292 82.48 301.999 82.48ZM327.085 129.68C325.165 129.68 323.645 129.227 322.525 128.32C321.405 127.36 320.605 125.973 320.125 124.16L312.685 97.2C312.205 95.6 312.125 94.1867 312.445 92.96C312.765 91.7333 313.405 90.7733 314.365 90.08C315.325 89.3867 316.552 89.04 318.045 89.04C319.698 89.04 320.978 89.44 321.885 90.24C322.792 91.04 323.458 92.4533 323.885 94.48L329.325 117.84H326.845L340.765 93.2C341.618 91.6533 342.525 90.5867 343.485 90C344.498 89.36 345.778 89.04 347.325 89.04C348.818 89.04 349.992 89.3867 350.845 90.08C351.698 90.72 352.152 91.6 352.205 92.72C352.312 93.7867 351.992 94.96 351.245 96.24L333.885 125.28C332.925 126.827 331.885 127.947 330.765 128.64C329.698 129.333 328.472 129.68 327.085 129.68ZM358.539 129.68C356.673 129.68 355.286 129.067 354.379 127.84C353.526 126.56 353.286 124.827 353.659 122.64L358.059 95.04C358.326 93.0133 359.046 91.52 360.219 90.56C361.393 89.5467 362.993 89.04 365.019 89.04C366.886 89.04 368.246 89.6533 369.099 90.88C369.953 92.1067 370.219 93.84 369.899 96.08L365.499 123.68C365.179 125.653 364.459 127.147 363.339 128.16C362.219 129.173 360.619 129.68 358.539 129.68ZM366.139 82.48C364.006 82.48 362.406 81.9733 361.339 80.96C360.326 79.9467 359.926 78.5067 360.139 76.64C360.459 74.56 361.286 73.0133 362.619 72C363.953 70.9333 365.766 70.4 368.059 70.4C370.193 70.4 371.793 70.9067 372.859 71.92C373.926 72.9333 374.299 74.4 373.979 76.32C373.713 78.3467 372.913 79.8933 371.579 80.96C370.246 81.9733 368.433 82.48 366.139 82.48ZM380.106 129.68C378.132 129.68 376.692 129.093 375.786 127.92C374.932 126.693 374.692 125.013 375.066 122.88L379.466 94.8C379.786 92.88 380.506 91.44 381.626 90.48C382.799 89.52 384.319 89.04 386.186 89.04C388.106 89.04 389.492 89.6267 390.346 90.8C391.199 91.92 391.466 93.5733 391.146 95.76L390.506 99.28H389.786C390.799 96.1333 392.506 93.6533 394.906 91.84C397.359 90.0267 400.186 89.04 403.386 88.88C404.986 88.8267 406.106 89.12 406.746 89.76C407.386 90.3467 407.706 91.36 407.706 92.8C407.706 94.9333 407.199 96.5067 406.186 97.52C405.226 98.5333 403.732 99.1467 401.706 99.36L399.066 99.6C395.919 99.92 393.652 100.88 392.266 102.48C390.879 104.027 389.946 106.293 389.466 109.28L387.146 123.84C386.879 125.813 386.132 127.28 384.906 128.24C383.732 129.2 382.132 129.68 380.106 129.68ZM449.418 129.84C445.631 129.84 442.538 129.147 440.138 127.76C437.791 126.373 436.138 124.48 435.178 122.08C434.218 119.627 434.005 116.827 434.538 113.68L436.938 98.72H434.218C432.725 98.72 431.551 98.4 430.698 97.76C429.845 97.0667 429.418 96.1067 429.418 94.88C429.418 93.2267 429.951 91.9467 431.018 91.04C432.138 90.1333 433.605 89.68 435.418 89.68H438.298L439.418 83.04C439.738 81.1733 440.431 79.7867 441.498 78.88C442.565 77.92 444.031 77.44 445.898 77.44C447.978 77.44 449.471 78.0267 450.378 79.2C451.285 80.3733 451.578 82 451.258 84.08L450.378 89.68H457.258C458.805 89.68 460.005 90 460.858 90.64C461.711 91.28 462.138 92.2133 462.138 93.44C462.138 94.9333 461.631 96.1867 460.618 97.2C459.658 98.2133 458.325 98.72 456.618 98.72H449.018L446.698 113.04C446.271 115.547 446.565 117.333 447.578 118.4C448.591 119.467 450.005 120 451.818 120C452.725 120 453.445 119.947 453.978 119.84C454.511 119.68 455.071 119.6 455.658 119.6C456.511 119.6 457.125 119.84 457.498 120.32C457.925 120.747 458.138 121.6 458.138 122.88C458.138 125.12 457.765 126.667 457.018 127.52C456.325 128.373 455.365 128.933 454.138 129.2C453.445 129.413 452.671 129.573 451.818 129.68C450.965 129.787 450.165 129.84 449.418 129.84ZM467.762 129.68C465.789 129.68 464.349 129.093 463.442 127.92C462.589 126.693 462.349 125.013 462.722 122.88L467.122 94.8C467.442 92.88 468.162 91.44 469.282 90.48C470.455 89.52 471.975 89.04 473.842 89.04C475.762 89.04 477.149 89.6267 478.002 90.8C478.855 91.92 479.122 93.5733 478.802 95.76L478.162 99.28H477.442C478.455 96.1333 480.162 93.6533 482.562 91.84C485.015 90.0267 487.842 89.04 491.042 88.88C492.642 88.8267 493.762 89.12 494.402 89.76C495.042 90.3467 495.362 91.36 495.362 92.8C495.362 94.9333 494.855 96.5067 493.842 97.52C492.882 98.5333 491.389 99.1467 489.362 99.36L486.722 99.6C483.575 99.92 481.309 100.88 479.922 102.48C478.535 104.027 477.602 106.293 477.122 109.28L474.802 123.84C474.535 125.813 473.789 127.28 472.562 128.24C471.389 129.2 469.789 129.68 467.762 129.68ZM507.86 129.84C505.407 129.84 503.167 129.28 501.14 128.16C499.167 126.987 497.567 125.467 496.34 123.6C495.167 121.733 494.58 119.707 494.58 117.52C494.58 114.747 495.353 112.48 496.9 110.72C498.447 108.96 500.847 107.68 504.1 106.88C507.353 106.027 511.513 105.6 516.58 105.6H522.9L521.94 111.84H516.82C514.207 111.84 512.127 112 510.58 112.32C509.033 112.587 507.913 113.093 507.22 113.84C506.527 114.533 506.18 115.493 506.18 116.72C506.18 118.32 506.713 119.573 507.78 120.48C508.9 121.333 510.287 121.76 511.94 121.76C513.487 121.76 514.847 121.44 516.02 120.8C517.247 120.16 518.26 119.253 519.06 118.08C519.913 116.907 520.447 115.52 520.66 113.92L522.18 104.56C522.553 102.373 522.153 100.693 520.98 99.52C519.86 98.3467 517.94 97.76 515.22 97.76C513.567 97.76 511.94 97.92 510.34 98.24C508.793 98.56 507.167 99.0933 505.46 99.84C504.233 100.267 503.167 100.347 502.26 100.08C501.353 99.8133 500.607 99.3333 500.02 98.64C499.487 97.9467 499.22 97.1467 499.22 96.24C499.273 95.28 499.62 94.3733 500.26 93.52C500.9 92.6667 501.94 91.9467 503.38 91.36C505.673 90.4533 507.967 89.8133 510.26 89.44C512.553 89.0667 514.767 88.88 516.9 88.88C521.38 88.88 524.9 89.7067 527.46 91.36C530.02 93.0133 531.753 95.2533 532.66 98.08C533.567 100.853 533.727 103.973 533.14 107.44L530.58 123.68C530.313 125.653 529.62 127.147 528.5 128.16C527.38 129.173 525.913 129.68 524.1 129.68C522.34 129.68 521.033 129.12 520.18 128C519.327 126.88 519.087 125.227 519.46 123.04L520.1 118.8L520.5 120.96C519.7 122.987 518.633 124.667 517.3 126C516.02 127.333 514.58 128.32 512.98 128.96C511.38 129.547 509.673 129.84 507.86 129.84ZM544.791 129.52C542.925 129.52 541.538 128.907 540.631 127.68C539.778 126.4 539.538 124.667 539.911 122.48L544.231 95.04C544.551 93.0133 545.298 91.52 546.471 90.56C547.645 89.5467 549.191 89.04 551.111 89.04C552.925 89.04 554.258 89.6 555.111 90.72C556.018 91.7867 556.285 93.3867 555.911 95.52L555.271 99.76L555.111 97.12C556.445 94.4533 558.311 92.4267 560.711 91.04C563.111 89.6 565.938 88.88 569.191 88.88C572.071 88.88 574.498 89.4667 576.471 90.64C578.445 91.8133 579.831 93.6267 580.631 96.08C581.485 98.5333 581.618 101.707 581.031 105.6L578.151 123.52C577.885 125.547 577.165 127.067 575.991 128.08C574.818 129.04 573.218 129.52 571.191 129.52C569.325 129.52 567.938 128.907 567.031 127.68C566.178 126.4 565.911 124.667 566.231 122.48L568.871 105.84C569.298 103.28 569.111 101.387 568.311 100.16C567.565 98.88 566.125 98.24 563.991 98.24C561.271 98.24 559.085 99.12 557.431 100.88C555.778 102.587 554.711 104.96 554.231 108L551.751 123.52C551.165 127.52 548.845 129.52 544.791 129.52ZM617.409 144.08C615.543 144.08 614.183 143.44 613.329 142.16C612.476 140.933 612.209 139.227 612.529 137.04L614.849 122.16H615.649C614.156 124.507 612.236 126.373 609.889 127.76C607.543 129.147 604.929 129.84 602.049 129.84C599.116 129.84 596.529 129.147 594.289 127.76C592.103 126.32 590.396 124.347 589.169 121.84C587.996 119.28 587.409 116.267 587.409 112.8C587.409 108.213 588.209 104.133 589.809 100.56C591.409 96.9333 593.703 94.08 596.689 92C599.676 89.92 603.223 88.88 607.329 88.88C610.156 88.88 612.663 89.5733 614.849 90.96C617.089 92.2933 618.663 94.2667 619.569 96.88L618.849 99.44L619.489 94.96C619.809 92.9867 620.476 91.52 621.489 90.56C622.556 89.5467 624.103 89.04 626.129 89.04C627.996 89.04 629.356 89.6533 630.209 90.88C631.116 92.1067 631.409 93.84 631.089 96.08L624.449 137.92C624.129 139.947 623.383 141.467 622.209 142.48C621.036 143.547 619.436 144.08 617.409 144.08ZM606.929 120.8C609.063 120.8 610.876 120.16 612.369 118.88C613.863 117.6 615.009 115.893 615.809 113.76C616.609 111.627 617.009 109.2 617.009 106.48C617.009 103.707 616.343 101.6 615.009 100.16C613.729 98.6667 611.943 97.92 609.649 97.92C607.516 97.92 605.703 98.5333 604.209 99.76C602.716 100.987 601.569 102.693 600.769 104.88C599.969 107.013 599.569 109.44 599.569 112.16C599.569 114.933 600.209 117.067 601.489 118.56C602.823 120.053 604.636 120.8 606.929 120.8ZM649.277 129.84C646.504 129.84 644.131 129.253 642.157 128.08C640.184 126.853 638.771 125.013 637.917 122.56C637.064 120.053 636.957 116.88 637.597 113.04L640.557 94.64C640.824 92.72 641.517 91.3067 642.637 90.4C643.757 89.4933 645.251 89.04 647.117 89.04C649.144 89.04 650.611 89.6 651.517 90.72C652.424 91.84 652.744 93.4933 652.477 95.68L649.757 112.88C649.384 115.387 649.571 117.28 650.317 118.56C651.064 119.787 652.451 120.4 654.477 120.4C657.037 120.4 659.117 119.547 660.717 117.84C662.371 116.08 663.437 113.68 663.917 110.64L666.477 94.64C666.797 92.72 667.491 91.3067 668.557 90.4C669.624 89.4933 671.091 89.04 672.957 89.04C675.037 89.04 676.531 89.6267 677.437 90.8C678.344 91.92 678.637 93.5467 678.317 95.68L673.917 124C673.331 127.787 671.144 129.68 667.357 129.68C665.491 129.68 664.104 129.173 663.197 128.16C662.344 127.147 662.051 125.573 662.317 123.44L663.037 118.4L663.277 121.28C661.891 124.107 659.971 126.24 657.517 127.68C655.117 129.12 652.371 129.84 649.277 129.84ZM688.305 129.68C686.438 129.68 685.052 129.067 684.145 127.84C683.292 126.56 683.052 124.827 683.425 122.64L687.825 95.04C688.092 93.0133 688.812 91.52 689.985 90.56C691.158 89.5467 692.758 89.04 694.785 89.04C696.652 89.04 698.012 89.6533 698.865 90.88C699.718 92.1067 699.985 93.84 699.665 96.08L695.265 123.68C694.945 125.653 694.225 127.147 693.105 128.16C691.985 129.173 690.385 129.68 688.305 129.68ZM695.905 82.48C693.772 82.48 692.172 81.9733 691.105 80.96C690.092 79.9467 689.692 78.5067 689.905 76.64C690.225 74.56 691.052 73.0133 692.385 72C693.718 70.9333 695.532 70.4 697.825 70.4C699.958 70.4 701.558 70.9067 702.625 71.92C703.692 72.9333 704.065 74.4 703.745 76.32C703.478 78.3467 702.678 79.8933 701.345 80.96C700.012 81.9733 698.198 82.48 695.905 82.48ZM718.511 129.84C713.765 129.84 710.325 128.507 708.191 125.84C706.058 123.12 705.391 119.2 706.191 114.08L712.031 77.92C712.298 75.8933 713.018 74.3733 714.191 73.36C715.365 72.3467 716.965 71.84 718.991 71.84C720.858 71.84 722.218 72.48 723.071 73.76C723.925 74.9867 724.191 76.6933 723.871 78.88L718.271 113.92C717.951 116 718.138 117.547 718.831 118.56C719.578 119.573 720.698 120.08 722.191 120.08C722.725 120.08 723.151 120.053 723.471 120C723.845 119.947 724.191 119.92 724.511 119.92C725.151 119.92 725.658 120.133 726.031 120.56C726.405 120.987 726.591 121.813 726.591 123.04C726.591 124.907 726.218 126.347 725.471 127.36C724.725 128.32 723.845 128.96 722.831 129.28C722.351 129.44 721.685 129.573 720.831 129.68C720.031 129.787 719.258 129.84 718.511 129.84ZM750.441 129.84C746.388 129.84 742.921 129.093 740.041 127.6C737.161 126.107 734.948 124 733.401 121.28C731.908 118.56 731.161 115.387 731.161 111.76C731.161 108.133 731.748 104.907 732.921 102.08C734.148 99.2 735.801 96.8 737.881 94.88C740.015 92.9067 742.415 91.4133 745.081 90.4C747.801 89.3867 750.655 88.88 753.641 88.88C757.695 88.88 761.161 89.6267 764.041 91.12C766.921 92.56 769.135 94.64 770.681 97.36C772.228 100.08 773.001 103.253 773.001 106.88C773.001 110.56 772.388 113.813 771.161 116.64C769.935 119.467 768.255 121.867 766.121 123.84C764.041 125.813 761.641 127.307 758.921 128.32C756.255 129.333 753.428 129.84 750.441 129.84ZM750.761 120.8C752.895 120.8 754.681 120.187 756.121 118.96C757.615 117.68 758.761 115.973 759.561 113.84C760.415 111.653 760.841 109.2 760.841 106.48C760.841 103.707 760.175 101.6 758.841 100.16C757.508 98.6667 755.695 97.92 753.401 97.92C751.321 97.92 749.508 98.5333 747.961 99.76C746.468 100.987 745.321 102.693 744.521 104.88C743.721 107.013 743.321 109.44 743.321 112.16C743.321 114.933 743.961 117.067 745.241 118.56C746.575 120.053 748.415 120.8 750.761 120.8ZM782.781 129.36C780.701 129.36 779.021 128.72 777.741 127.44C776.514 126.16 775.901 124.507 775.901 122.48C775.901 120.507 776.514 118.907 777.741 117.68C779.021 116.4 780.701 115.76 782.781 115.76C784.967 115.76 786.647 116.4 787.821 117.68C789.047 118.907 789.661 120.507 789.661 122.48C789.661 124.507 789.047 126.16 787.821 127.44C786.647 128.72 784.967 129.36 782.781 129.36Z" fill="white"/>
</svg>
